<?xml version="1.0" encoding="UTF-8" standalone="no"?>
<!-- Created with Inkscape (http://www.inkscape.org/) -->

<svg
   xmlns:dc="http://purl.org/dc/elements/1.1/"
   xmlns:cc="http://creativecommons.org/ns#"
   xmlns:rdf="http://www.w3.org/1999/02/22-rdf-syntax-ns#"
   xmlns:svg="http://www.w3.org/2000/svg"
   xmlns="http://www.w3.org/2000/svg"
   xmlns:sodipodi="http://sodipodi.sourceforge.net/DTD/sodipodi-0.dtd"
   xmlns:inkscape="http://www.inkscape.org/namespaces/inkscape"
   width="63.999981"
   height="65.214066"
   id="svg5013"
   version="1.1"
   inkscape:version="0.48.5 r10040"
   sodipodi:docname="New document 16">
  <defs
     id="defs5015" />
  <sodipodi:namedview
     id="base"
     pagecolor="#ffffff"
     bordercolor="#666666"
     borderopacity="1.0"
     inkscape:pageopacity="0.0"
     inkscape:pageshadow="2"
     inkscape:zoom="1"
     inkscape:cx="355.99999"
     inkscape:cy="-41.392969"
     inkscape:document-units="px"
     inkscape:current-layer="layer1"
     showgrid="false"
     fit-margin-top="0"
     fit-margin-left="0"
     fit-margin-right="0"
     fit-margin-bottom="0"
     inkscape:window-width="1920"
     inkscape:window-height="1019"
     inkscape:window-x="0"
     inkscape:window-y="27"
     inkscape:window-maximized="1" />
  <metadata
     id="metadata5018">
    <rdf:RDF>
      <cc:Work
         rdf:about="">
        <dc:format>image/svg+xml</dc:format>
        <dc:type
           rdf:resource="http://purl.org/dc/dcmitype/StillImage" />
        <dc:title></dc:title>
      </cc:Work>
    </rdf:RDF>
  </metadata>
  <g
     inkscape:label="Layer 1"
     inkscape:groupmode="layer"
     id="layer1"
     transform="translate(-99.000008,-25.755152)">
    <path
       sodipodi:nodetypes="sssscssssscsssssssssssssssssssssssssssssssssssssssssscssssssssssssssssssssssssscssssssssscsscsssssss"
       inkscape:connector-curvature="0"
       id="path3404"
       d="m 99.333903,71.123813 c 0.11958,-20.840553 0.16397,-21.576964 1.421867,-23.591191 0.34282,-0.548939 0.336,-0.722696 -0.0463,-1.179226 -1.399537,-1.671336 -1.803727,-4.880372 -1.691837,-13.432267 l 0.0911,-6.967261 3.261267,-0.14824 c 3.91248,-0.177839 11.10004,0.136977 13.4365,0.588523 0.92616,0.178991 2.29799,0.600348 3.04851,0.936347 1.24649,0.55804 1.43892,0.572736 2.22359,0.169815 2.01781,-1.036113 3.99363,-1.138359 23.08373,-1.194533 10.36071,-0.03049 18.83766,0.03564 18.83766,0.146947 0,0.281735 -0.48423,0.40228 -5.10276,1.270294 -6.08624,1.143857 -8.87383,1.327301 -20.39445,1.342102 -10.29533,0.01322 -13.9707,0.241993 -15.08686,0.93905 -0.5402,0.337355 -0.54029,0.376097 -0.004,1.55734 0.72344,1.592898 0.71634,3.751348 -0.0171,5.188945 -0.65406,1.282041 -0.56242,1.507295 0.61313,1.507295 1.29664,0 2.40172,-1.144265 2.44812,-2.534911 0.0349,-1.046173 -0.063,-1.21851 -0.91806,-1.615797 -1.1312,-0.52559 -1.18481,-0.832846 -0.33399,-1.914467 0.5001,-0.635787 0.82385,-0.780942 1.51542,-0.679443 0.6417,0.09419 1.06722,-0.05872 1.57413,-0.565622 0.80173,-0.801727 1.26819,-0.863062 2.07326,-0.272609 0.50377,0.369472 0.64406,0.360233 1.12547,-0.07412 0.78552,-0.708736 3.20101,-0.667469 4.01434,0.06858 0.81856,0.740789 0.78872,1.065846 -0.0978,1.065846 -1.92371,0 -3.36612,1.257458 -4.61886,4.02661 -1.60744,3.553228 -3.79413,5.218128 -6.83443,5.203586 -0.95078,-0.0046 -2.11358,-0.207298 -2.58399,-0.450556 -0.75928,-0.39264 -1.02752,-0.3918 -2.3896,0.0074 -1.39779,0.409749 -1.67257,0.405043 -3.08838,-0.05289 -2.08974,-0.675919 -3.91156,-2.448083 -5.01671,-4.879999 -1.30977,-2.88218 -2.73878,-4.150708 -4.67582,-4.150708 -1.00727,0 -1.15288,0.490852 -0.58793,1.981934 0.50752,1.339463 1.47049,2.174055 3.68625,3.194801 4.03705,1.859771 6.11638,5.31144 5.21539,8.657472 -0.26008,0.965845 -0.23591,1.42344 0.12021,2.275736 0.68238,1.633171 0.56516,3.694565 -0.30995,5.450688 -0.86279,1.731386 -2.07551,2.76098 -4.51064,3.829527 -0.93552,0.410505 -2.13202,1.159924 -2.6589,1.665374 -0.97226,0.932703 -1.74758,2.645374 -1.43011,3.15906 0.42309,0.684579 -0.44265,0.546506 -0.9977,-0.159114 -0.73337,-0.932333 -0.82837,-2.938195 -0.18282,-3.859854 0.35661,-0.509138 0.36981,-0.78937 0.0741,-1.573765 -0.33164,-0.87977 -0.29947,-1.006203 0.41182,-1.618281 0.61469,-0.528948 0.74315,-0.85773 0.63172,-1.61693 -0.28106,-1.914988 1.8544,-2.95876 2.50843,-1.226066 0.29423,0.779507 0.47909,0.889438 1.49571,0.889438 1.35767,0 2.3377,-0.850447 2.62281,-2.276008 0.23298,-1.164924 -0.20189,-1.435627 -1.35137,-0.841209 -1.67527,0.866317 -3.82568,0.771689 -6.28951,-0.276769 -0.40523,-0.172445 -0.59712,0.08702 -1.01185,1.368234 -0.44642,1.379092 -0.52679,3.322979 -0.62922,15.219075 l -0.11745,13.638044 -0.88876,4.669357 c -0.48881,2.568148 -0.92018,5.16051 -0.95858,5.760813 -0.0384,0.6003 -0.239437,1.147994 -0.446747,1.217097 -0.30318,0.10106 -0.35451,-3.781354 -0.26236,-19.843574 z m 9.644947,-24.131701 c 0.37356,-0.08462 0.59917,-0.28335 0.50135,-0.441634 -0.26805,-0.433711 -2.88243,-0.327283 -3.50241,0.142578 -0.5152,0.390458 -0.50761,0.417366 0.14825,0.526085 0.71155,0.11795 1.66464,0.04211 2.85281,-0.227029 z m -1.15974,-3.305701 c 0.91655,0.07746 2.04012,0.238704 2.49682,0.35832 0.79343,0.207809 0.82182,0.179552 0.6385,-0.635273 -0.23464,-1.04284 -1.70264,-2.483392 -2.53071,-2.483392 -0.95024,0 -1.66929,0.508781 -1.87449,1.326336 -0.23991,0.955844 -0.88969,0.952415 -1.85188,-0.0098 -0.5648,-0.564806 -0.72605,-0.981794 -0.63075,-1.631094 0.0867,-0.590956 -0.0467,-1.030413 -0.41366,-1.362515 -0.58767,-0.531842 -0.73398,-2.023336 -0.22908,-2.335381 0.20871,-0.128994 0.16507,-0.418331 -0.13135,-0.870711 -0.90253,-1.377438 -0.73445,-3.15503 0.41171,-4.354387 0.48919,-0.511892 0.88944,-1.022925 0.88944,-1.135629 0,-0.343886 1.45852,-0.893055 2.37183,-0.893055 0.97244,0 2.37184,0.556884 2.37184,0.943861 0,0.140649 0.339,0.03359 0.75334,-0.237884 0.60671,-0.397531 0.89686,-0.428215 1.49072,-0.15764 0.40555,0.184784 0.80416,0.510011 0.88578,0.72273 0.0928,0.241852 0.50625,0.345882 1.10348,0.277657 1.80125,-0.205766 3.24777,2.296566 1.47325,2.54857 -1.47583,0.209585 -1.57018,2.187237 -0.16642,3.488193 0.71445,0.662132 1.84464,0.940772 2.23451,0.550902 0.0907,-0.09077 -0.0457,-0.824128 -0.30336,-1.629696 -0.4024,-1.258324 -0.41407,-1.684087 -0.0829,-3.022123 0.21205,-0.856601 0.58856,-1.87988 0.83671,-2.273955 0.40818,-0.648228 0.40418,-0.750862 -0.0421,-1.077134 -0.87112,-0.636979 -4.80207,-1.022919 -10.41884,-1.022919 l -5.47276,0 0.0205,2.149474 c 0.063,6.626729 0.47695,12.259303 0.96976,13.194224 l 0.50837,0.964458 1.51261,-0.766502 c 1.25358,-0.635238 1.798,-0.742383 3.17907,-0.625663 z m 12.48341,-9.413672 c -0.006,-1.646886 -0.38248,-2.187648 -0.83348,-1.197834 -0.38494,0.844864 -0.45365,2.190464 -0.15198,2.976602 0.18288,0.476575 0.22235,0.474418 0.59296,-0.03241 0.21837,-0.298638 0.39499,-1.084496 0.3925,-1.74635 z"
       style="fill:#c8beb7;fill-opacity:1" />
  </g>
</svg>
