<?xml version="1.0" encoding="UTF-8" standalone="no"?>
<!-- Created with Inkscape (http://www.inkscape.org/) -->

<svg
   xmlns:dc="http://purl.org/dc/elements/1.1/"
   xmlns:cc="http://creativecommons.org/ns#"
   xmlns:rdf="http://www.w3.org/1999/02/22-rdf-syntax-ns#"
   xmlns:svg="http://www.w3.org/2000/svg"
   xmlns="http://www.w3.org/2000/svg"
   version="1.1"
   width="326.23499"
   height="19.486515"
   id="svg4139">
  <defs
     id="defs4141" />
  <metadata
     id="metadata4144">
    <rdf:RDF>
      <cc:Work
         rdf:about="">
        <dc:format>image/svg+xml</dc:format>
        <dc:type
           rdf:resource="http://purl.org/dc/dcmitype/StillImage" />
        <dc:title></dc:title>
      </cc:Work>
    </rdf:RDF>
  </metadata>
  <g
     transform="translate(-211.88251,-522.65924)"
     id="layer1">
    <g
       transform="translate(-69.872165,1061.552)"
       id="g4069">
      <g
         id="g4071">
        <path
           d="m 443.28403,-535.02545 c -0.81564,4.22985 -6.98267,5.78943 -9.10399,6.14299 -0.0731,2.76897 3.31186,3.83388 4.5078,3.97748 4.04977,-3.01645 4.59619,-5.46737 4.59619,-10.12047 z"
           id="path4073"
           style="fill:#000000;fill-opacity:1;stroke:#000000;stroke-width:1.20000005;stroke-linecap:butt;stroke-linejoin:miter;stroke-miterlimit:4;stroke-opacity:1;stroke-dasharray:none" />
        <g
           id="g4075">
          <path
             d="m 445.43396,-532.77025 c -0.48614,3.57973 -2.17438,7.07108 -4.2957,8.70625 1.5468,2.12132 4.90086,3.97706 4.90086,3.97706 0,0 3.45314,-1.7612 5.13252,-3.97091 -2.20971,-1.46155 -3.76553,-5.22355 -4.32803,-8.72355 z"
             id="path4077"
             style="fill:#000000;fill-opacity:1;stroke:#000000;stroke-width:1.20000005;stroke-linecap:butt;stroke-linejoin:miter;stroke-miterlimit:4;stroke-opacity:1;stroke-dasharray:none" />
        </g>
        <path
           d="m 441.89755,-536.65933 -11.88824,0.0884 c 0,0 1.14905,5.74525 3.0494,5.87783 1.90035,0.13258 8.48528,-1.28164 8.83884,-5.96621 z"
           id="path4079"
           style="fill:#000000;stroke:#000000;stroke-width:1px;stroke-linecap:butt;stroke-linejoin:miter;stroke-opacity:1" />
        <path
           d="m 448.92181,-535.02545 c 0.81564,4.22985 6.98267,5.78943 9.10399,6.14299 0.0731,2.76897 -3.31186,3.83388 -4.5078,3.97748 -4.04977,-3.01645 -4.59619,-5.46737 -4.59619,-10.12047 z"
           id="path4081"
           style="fill:#000000;fill-opacity:1;stroke:#000000;stroke-width:1.20000005;stroke-linecap:butt;stroke-linejoin:miter;stroke-miterlimit:4;stroke-opacity:1;stroke-dasharray:none" />
        <path
           d="m 450.30829,-536.65933 11.88824,0.0884 c 0,0 -1.14905,5.74525 -3.0494,5.87783 -1.90035,0.13258 -8.48528,-1.28164 -8.83884,-5.96621 z"
           id="path4083"
           style="fill:#000000;stroke:#000000;stroke-width:1px;stroke-linecap:butt;stroke-linejoin:miter;stroke-opacity:1" />
      </g>
      <path
         d="m 448.375,410.125 a 3.3125,3 0 1 1 -6.625,0 l 3.3125,0 z"
         transform="matrix(1.3584906,0,0,1.4249201,-158.22905,-1122.4082)"
         id="path4085"
         style="fill:#000000;fill-opacity:1;stroke:#fffffe;stroke-width:0.86249721;stroke-linejoin:round;stroke-miterlimit:4;stroke-opacity:1;stroke-dasharray:none" />
      <path
         d="m 286.5,-537.88785 317.5,0"
         id="path4087"
         style="fill:none;stroke:#000000;stroke-width:2;stroke-linecap:butt;stroke-linejoin:miter;stroke-miterlimit:4;stroke-opacity:1;stroke-dasharray:none" />
      <path
         d="m 603.53105,-533.38911 c 0.16229,0.6702 0.49299,1.18133 0.9921,1.53342 0.49575,0.33817 1.07172,0.42779 1.72791,0.26887 0.65622,-0.15888 1.14686,-0.54374 1.47191,-1.15458 0.31111,-0.6074 0.35002,-1.3928 0.11673,-2.3562 -0.32794,-1.35426 -0.91233,-2.42475 -1.75318,-3.21147 -0.74671,-0.72747 -1.80868,-0.56913 -2.89987,-0.56913 l -0.003,1.95394 1.10666,0.0953 c 1.564,0.0365 2.44777,0.57168 2.62695,1.31162 l -0.41886,0.10143 c -0.46648,-0.52256 -1.04179,-0.70103 -1.72594,-0.5354 -0.57242,0.13865 -0.9579,0.43892 -1.15645,0.90082 -0.21586,0.45139 -0.24435,1.00516 -0.0854,1.66134"
         id="path4089"
         style="font-size:40px;font-style:normal;font-variant:normal;font-weight:normal;font-stretch:normal;text-align:start;line-height:125%;letter-spacing:0px;word-spacing:0px;writing-mode:lr-tb;text-anchor:start;fill:#000000;fill-opacity:1;stroke:none;font-family:Sevillana;-inkscape-font-specification:Sevillana" />
      <path
         d="m 286.21328,-533.38911 c -0.16229,0.6702 -0.49299,1.18133 -0.9921,1.53342 -0.49575,0.33817 -1.07172,0.42779 -1.72791,0.26887 -0.65622,-0.15888 -1.14686,-0.54374 -1.47191,-1.15458 -0.31111,-0.6074 -0.35002,-1.3928 -0.11673,-2.3562 0.32794,-1.35426 0.91233,-2.42475 1.75318,-3.21147 0.74671,-0.72747 1.80868,-0.56913 2.89987,-0.56913 l 0.003,1.95394 -1.10666,0.0953 c -1.564,0.0365 -2.44777,0.57168 -2.62695,1.31162 l 0.41886,0.10143 c 0.46648,-0.52256 1.04179,-0.70103 1.72594,-0.5354 0.57242,0.13865 0.9579,0.43892 1.15645,0.90082 0.21586,0.45139 0.24435,1.00516 0.0854,1.66134"
         id="path4091"
         style="font-size:40px;font-style:normal;font-variant:normal;font-weight:normal;font-stretch:normal;text-align:start;line-height:125%;letter-spacing:0px;word-spacing:0px;writing-mode:lr-tb;text-anchor:start;fill:#000000;fill-opacity:1;stroke:none;font-family:Sevillana;-inkscape-font-specification:Sevillana" />
    </g>
  </g>
</svg>
