<?xml version="1.0" encoding="UTF-8" standalone="no"?>
<!-- Generator: Adobe Illustrator 19.0.0, SVG Export Plug-In . SVG Version: 6.00 Build 0)  -->

<svg
   xmlns:dc="http://purl.org/dc/elements/1.1/"
   xmlns:cc="http://creativecommons.org/ns#"
   xmlns:rdf="http://www.w3.org/1999/02/22-rdf-syntax-ns#"
   xmlns:svg="http://www.w3.org/2000/svg"
   xmlns="http://www.w3.org/2000/svg"
   xmlns:sodipodi="http://sodipodi.sourceforge.net/DTD/sodipodi-0.dtd"
   xmlns:inkscape="http://www.inkscape.org/namespaces/inkscape"
   version="1.1"
   id="Capa_1"
   x="0px"
   y="0px"
   viewBox="0 0 33.999999 46.448344"
   xml:space="preserve"
   inkscape:version="0.48.5 r10040"
   width="100%"
   height="100%"
   sodipodi:docname="pin_castle.svg].svg"
   inkscape:export-filename="/home/ravenous/dev/wedding/src/img/pin_hotel.png"
   inkscape:export-xdpi="180.20018"
   inkscape:export-ydpi="180.20018"><metadata
     id="metadata3625"><rdf:RDF><cc:Work
         rdf:about=""><dc:format>image/svg+xml</dc:format><dc:type
           rdf:resource="http://purl.org/dc/dcmitype/StillImage" /><dc:title></dc:title></cc:Work></rdf:RDF></metadata><defs
     id="defs3623" /><sodipodi:namedview
     pagecolor="#ffffff"
     bordercolor="#666666"
     borderopacity="1"
     objecttolerance="10"
     gridtolerance="10"
     guidetolerance="10"
     inkscape:pageopacity="0"
     inkscape:pageshadow="2"
     inkscape:window-width="1920"
     inkscape:window-height="1019"
     id="namedview3621"
     showgrid="false"
     fit-margin-top="0"
     fit-margin-left="0"
     fit-margin-right="0"
     fit-margin-bottom="0"
     inkscape:zoom="2.8284271"
     inkscape:cx="-69.72793"
     inkscape:cy="-33.753557"
     inkscape:window-x="0"
     inkscape:window-y="27"
     inkscape:window-maximized="1"
     inkscape:current-layer="Capa_1" /><g
     id="g3553"
     transform="matrix(0.09975355,0,0,0.09975355,-7.2217643,0)"><g
       id="g3555"
       style="fill:#002349;fill-opacity:1"><g
         id="g3557"
         style="fill:#002349;fill-opacity:1"><path
           style="fill:#002349;fill-opacity:1"
           d="m 242.816,0 c -94.117,0 -170.42,76.303 -170.42,170.419 0,7.205 0.578,14.227 1.459,21.188 14.562,133.12 157.895,266.546 157.895,266.546 2.554,2.858 5.016,4.621 7.387,5.897 l 0.122,0.061 4.773,1.52 4.773,-1.52 0.122,-0.061 c 2.371,-1.277 4.834,-3.131 7.387,-5.897 0,0 141.266,-133.7 155.493,-266.849 0.851,-6.87 1.429,-13.832 1.429,-20.915 C 413.205,76.303 336.933,0 242.816,0 z"
           id="path3559"
           inkscape:connector-curvature="0"
           sodipodi:nodetypes="ssccccccccccs" /></g></g><g
       id="g3561" /><g
       id="g3563" /><g
       id="g3565" /><g
       id="g3567" /><g
       id="g3569" /><g
       id="g3571" /><g
       id="g3573" /><g
       id="g3575" /><g
       id="g3577" /><g
       id="g3579" /><g
       id="g3581" /><g
       id="g3583" /><g
       id="g3585" /><g
       id="g3587" /><g
       id="g3589" /><g
       id="g4524"
       transform="matrix(0.43431456,0,0,0.43431456,134.15137,75.7548)"
       style="fill:#ffffff"><g
         id="g4483"
         style="fill:#ffffff"><g
           id="favorite"
           style="fill:#ffffff"><path
             id="path4486"
             d="M 255,489.6 219.3,453.9 C 86.7,336.6 0,257.55 0,160.65 0,81.6 61.2,20.4 140.25,20.4 183.6,20.4 226.95,40.8 255,73.95 283.05,40.8 326.4,20.4 369.75,20.4 448.8,20.4 510,81.6 510,160.65 510,257.55 423.3,336.6 290.7,453.9 L 255,489.6 z"
             inkscape:connector-curvature="0"
             style="fill:#ffffff" /></g></g><g
         id="g4488"
         style="fill:#ffffff" /><g
         id="g4490"
         style="fill:#ffffff" /><g
         id="g4492"
         style="fill:#ffffff" /><g
         id="g4494"
         style="fill:#ffffff" /><g
         id="g4496"
         style="fill:#ffffff" /><g
         id="g4498"
         style="fill:#ffffff" /><g
         id="g4500"
         style="fill:#ffffff" /><g
         id="g4502"
         style="fill:#ffffff" /><g
         id="g4504"
         style="fill:#ffffff" /><g
         id="g4506"
         style="fill:#ffffff" /><g
         id="g4508"
         style="fill:#ffffff" /><g
         id="g4510"
         style="fill:#ffffff" /><g
         id="g4512"
         style="fill:#ffffff" /><g
         id="g4514"
         style="fill:#ffffff" /><g
         id="g4516"
         style="fill:#ffffff" /></g></g><g
     id="g3591"
     transform="translate(-72.396006,-419.18265)" /><g
     id="g3593"
     transform="translate(-72.396006,-419.18265)" /><g
     id="g3595"
     transform="translate(-72.396006,-419.18265)" /><g
     id="g3597"
     transform="translate(-72.396006,-419.18265)" /><g
     id="g3599"
     transform="translate(-72.396006,-419.18265)" /><g
     id="g3601"
     transform="translate(-72.396006,-419.18265)" /><g
     id="g3603"
     transform="translate(-72.396006,-419.18265)" /><g
     id="g3605"
     transform="translate(-72.396006,-419.18265)" /><g
     id="g3607"
     transform="translate(-72.396006,-419.18265)" /><g
     id="g3609"
     transform="translate(-72.396006,-419.18265)" /><g
     id="g3611"
     transform="translate(-72.396006,-419.18265)" /><g
     id="g3613"
     transform="translate(-72.396006,-419.18265)" /><g
     id="g3615"
     transform="translate(-72.396006,-419.18265)" /><g
     id="g3617"
     transform="translate(-72.396006,-419.18265)" /><g
     id="g3619"
     transform="translate(-72.396006,-419.18265)" /><g
     transform="matrix(0.09975355,0,0,0.09975355,-7.2217643,0)"
     id="g4563"><g
       style="fill:#002349;fill-opacity:1"
       id="g4565"><g
         style="fill:#002349;fill-opacity:1"
         id="g4567"><path
           sodipodi:nodetypes="ssccccccccccs"
           inkscape:connector-curvature="0"
           id="path4569"
           d="m 242.816,0 c -94.117,0 -170.42,76.303 -170.42,170.419 0,7.205 0.578,14.227 1.459,21.188 14.562,133.12 157.895,266.546 157.895,266.546 2.554,2.858 5.016,4.621 7.387,5.897 l 0.122,0.061 4.773,1.52 4.773,-1.52 0.122,-0.061 c 2.371,-1.277 4.834,-3.131 7.387,-5.897 0,0 141.266,-133.7 155.493,-266.849 0.851,-6.87 1.429,-13.832 1.429,-20.915 C 413.205,76.303 336.933,0 242.816,0 z"
           style="fill:#002349;fill-opacity:1" /></g></g><g
       id="g4571" /><g
       id="g4573" /><g
       id="g4575" /><g
       id="g4577" /><g
       id="g4579" /><g
       id="g4581" /><g
       id="g4583" /><g
       id="g4585" /><g
       id="g4587" /><g
       id="g4589" /><g
       id="g4591" /><g
       id="g4593" /><g
       id="g4595" /><g
       id="g4597" /><g
       id="g4599" /><g
       style="fill:#ffffff"
       transform="matrix(0.43431456,0,0,0.43431456,134.15137,75.7548)"
       id="g4601"><g
         style="fill:#ffffff"
         id="g4603"><g
           style="fill:#ffffff"
           id="g4605" /></g><g
         style="fill:#ffffff"
         id="g4609" /><g
         style="fill:#ffffff"
         id="g4611" /><g
         style="fill:#ffffff"
         id="g4613" /><g
         style="fill:#ffffff"
         id="g4615" /><g
         style="fill:#ffffff"
         id="g4617" /><g
         style="fill:#ffffff"
         id="g4619" /><g
         style="fill:#ffffff"
         id="g4621" /><g
         style="fill:#ffffff"
         id="g4623" /><g
         style="fill:#ffffff"
         id="g4625" /><g
         style="fill:#ffffff"
         id="g4627" /><g
         style="fill:#ffffff"
         id="g4629" /><g
         style="fill:#ffffff"
         id="g4631" /><g
         style="fill:#ffffff"
         id="g4633" /><g
         style="fill:#ffffff"
         id="g4635" /><g
         style="fill:#ffffff"
         id="g4637" /></g></g><g
     transform="matrix(0.0621566,0,0,0.0621566,4.8621459,6.3105227)"
     id="g3465"
     style="fill:#ffffff"><path
       inkscape:connector-curvature="0"
       style="fill:#ffffff"
       d="M 389.772,248.296 346.781,180.233 V 55.028 l -17.5,-17.5 H 61.275 l -17.5,17.5 V 180.232 L 0.784,248.296 H 389.772 z M 311.781,72.528 v 87.362 c -22.553,-5.834 -61.514,-13.028 -116.503,-13.028 -54.989,0 -93.95,7.194 -116.503,13.028 V 72.528 h 233.006 z"
       id="path3467" /><polygon
       style="fill:#ffffff"
       points="75.778,353.028 75.778,304.831 314.778,304.831 314.778,353.028 349.778,353.028 349.778,304.831 390.557,304.831 390.557,269.831 0,269.831 0,304.831 40.778,304.831 40.778,353.028 "
       id="polygon3469" /><path
       inkscape:connector-curvature="0"
       style="fill:#ffffff"
       d="m 181.075,128.653 v -20.389 c 0,-12.102 -17.564,-21.916 -39.23,-21.916 -21.666,0 -39.229,9.814 -39.229,21.916 v 30.604 c 0,0 23.14,-5.826 39.045,-7.332 14.319,-1.357 39.414,-2.883 39.414,-2.883 z"
       id="path3471" /><path
       inkscape:connector-curvature="0"
       style="fill:#ffffff"
       d="m 287.941,138.868 v -30.604 c 0,-12.102 -17.564,-21.916 -39.23,-21.916 -21.666,0 -39.23,9.814 -39.23,21.916 v 20.389 c 0,0 25.096,1.525 39.415,2.883 15.906,1.506 39.045,7.332 39.045,7.332 z"
       id="path3473" /></g><g
     transform="matrix(0.05129355,0,0,0.05129355,6.9834719,8.4318376)"
     id="g3475"
     style="fill:#ffffff" /><g
     transform="matrix(0.05129355,0,0,0.05129355,6.9834719,8.4318376)"
     id="g3477"
     style="fill:#ffffff" /><g
     transform="matrix(0.05129355,0,0,0.05129355,6.9834719,8.4318376)"
     id="g3479"
     style="fill:#ffffff" /><g
     transform="matrix(0.05129355,0,0,0.05129355,6.9834719,8.4318376)"
     id="g3481"
     style="fill:#ffffff" /><g
     transform="matrix(0.05129355,0,0,0.05129355,6.9834719,8.4318376)"
     id="g3483"
     style="fill:#ffffff" /><g
     transform="matrix(0.05129355,0,0,0.05129355,6.9834719,8.4318376)"
     id="g3485"
     style="fill:#ffffff" /><g
     transform="matrix(0.05129355,0,0,0.05129355,6.9834719,8.4318376)"
     id="g3487"
     style="fill:#ffffff" /><g
     transform="matrix(0.05129355,0,0,0.05129355,6.9834719,8.4318376)"
     id="g3489"
     style="fill:#ffffff" /><g
     transform="matrix(0.05129355,0,0,0.05129355,6.9834719,8.4318376)"
     id="g3491"
     style="fill:#ffffff" /><g
     transform="matrix(0.05129355,0,0,0.05129355,6.9834719,8.4318376)"
     id="g3493"
     style="fill:#ffffff" /><g
     transform="matrix(0.05129355,0,0,0.05129355,6.9834719,8.4318376)"
     id="g3495"
     style="fill:#ffffff" /><g
     transform="matrix(0.05129355,0,0,0.05129355,6.9834719,8.4318376)"
     id="g3497"
     style="fill:#ffffff" /><g
     transform="matrix(0.05129355,0,0,0.05129355,6.9834719,8.4318376)"
     id="g3499"
     style="fill:#ffffff" /><g
     transform="matrix(0.05129355,0,0,0.05129355,6.9834719,8.4318376)"
     id="g3501"
     style="fill:#ffffff" /><g
     transform="matrix(0.05129355,0,0,0.05129355,6.9834719,8.4318376)"
     id="g3503"
     style="fill:#ffffff" /></svg>