<?xml version="1.0" encoding="UTF-8" standalone="no"?>
<!-- Created with Inkscape (http://www.inkscape.org/) -->

<svg
   xmlns:dc="http://purl.org/dc/elements/1.1/"
   xmlns:cc="http://creativecommons.org/ns#"
   xmlns:rdf="http://www.w3.org/1999/02/22-rdf-syntax-ns#"
   xmlns:svg="http://www.w3.org/2000/svg"
   xmlns="http://www.w3.org/2000/svg"
   version="1.1"
   width="100%"
   height="100%"
   viewBox="0 0 340.83999 465.63099"
   id="Capa_1"
   xml:space="preserve"><metadata
     id="metadata3625"><rdf:RDF><cc:Work
         rdf:about=""><dc:format>image/svg+xml</dc:format><dc:type
           rdf:resource="http://purl.org/dc/dcmitype/StillImage" /><dc:title></dc:title></cc:Work></rdf:RDF></metadata><defs
     id="defs3623" /><g
     transform="translate(-72.396,0)"
     id="g3553"><g
       id="g3555"
       style="fill:#002349;fill-opacity:1"><g
         id="g3557"
         style="fill:#002349;fill-opacity:1"><path
           d="m 242.816,0 c -94.117,0 -170.42,76.303 -170.42,170.419 0,7.205 0.578,14.227 1.459,21.188 14.562,133.12 157.895,266.546 157.895,266.546 2.554,2.858 5.016,4.621 7.387,5.897 l 0.122,0.061 4.773,1.52 4.773,-1.52 0.122,-0.061 c 2.371,-1.277 4.834,-3.131 7.387,-5.897 0,0 141.266,-133.7 155.493,-266.849 0.851,-6.87 1.429,-13.832 1.429,-20.915 C 413.205,76.303 336.933,0 242.816,0 z"
           id="path3559"
           style="fill:#002349;fill-opacity:1" /></g></g><g
       id="g3561" /><g
       id="g3563" /><g
       id="g3565" /><g
       id="g3567" /><g
       id="g3569" /><g
       id="g3571" /><g
       id="g3573" /><g
       id="g3575" /><g
       id="g3577" /><g
       id="g3579" /><g
       id="g3581" /><g
       id="g3583" /><g
       id="g3585" /><g
       id="g3587" /><g
       id="g3589" /><g
       transform="matrix(0.43431456,0,0,0.43431456,134.15137,75.7548)"
       id="g4524"
       style="fill:#ffffff"><g
         id="g4483"
         style="fill:#ffffff"><g
           id="favorite"
           style="fill:#ffffff"><path
             d="M 255,489.6 219.3,453.9 C 86.7,336.6 0,257.55 0,160.65 0,81.6 61.2,20.4 140.25,20.4 183.6,20.4 226.95,40.8 255,73.95 283.05,40.8 326.4,20.4 369.75,20.4 448.8,20.4 510,81.6 510,160.65 510,257.55 423.3,336.6 290.7,453.9 L 255,489.6 z"
             id="path4486"
             style="fill:#ffffff" /></g></g><g
         id="g4488"
         style="fill:#ffffff" /><g
         id="g4490"
         style="fill:#ffffff" /><g
         id="g4492"
         style="fill:#ffffff" /><g
         id="g4494"
         style="fill:#ffffff" /><g
         id="g4496"
         style="fill:#ffffff" /><g
         id="g4498"
         style="fill:#ffffff" /><g
         id="g4500"
         style="fill:#ffffff" /><g
         id="g4502"
         style="fill:#ffffff" /><g
         id="g4504"
         style="fill:#ffffff" /><g
         id="g4506"
         style="fill:#ffffff" /><g
         id="g4508"
         style="fill:#ffffff" /><g
         id="g4510"
         style="fill:#ffffff" /><g
         id="g4512"
         style="fill:#ffffff" /><g
         id="g4514"
         style="fill:#ffffff" /><g
         id="g4516"
         style="fill:#ffffff" /></g></g><g
     transform="translate(-72.396,0)"
     id="g3591" /><g
     transform="translate(-72.396,0)"
     id="g3593" /><g
     transform="translate(-72.396,0)"
     id="g3595" /><g
     transform="translate(-72.396,0)"
     id="g3597" /><g
     transform="translate(-72.396,0)"
     id="g3599" /><g
     transform="translate(-72.396,0)"
     id="g3601" /><g
     transform="translate(-72.396,0)"
     id="g3603" /><g
     transform="translate(-72.396,0)"
     id="g3605" /><g
     transform="translate(-72.396,0)"
     id="g3607" /><g
     transform="translate(-72.396,0)"
     id="g3609" /><g
     transform="translate(-72.396,0)"
     id="g3611" /><g
     transform="translate(-72.396,0)"
     id="g3613" /><g
     transform="translate(-72.396,0)"
     id="g3615" /><g
     transform="translate(-72.396,0)"
     id="g3617" /><g
     transform="translate(-72.396,0)"
     id="g3619" /></svg>